<?xml version="1.0" encoding="UTF-8"?>
<svg id="Layer_1" data-name="Layer 1" xmlns="http://www.w3.org/2000/svg" viewBox="0 0 896.02 237.42">
  <defs>
    <style>
      .cls-1, .cls-2 {
        fill: #263e90;
      }

      .cls-3 {
        fill: #fff;
      }

      .cls-3, .cls-2, .cls-4 {
        stroke: #231f20;
        stroke-miterlimit: 10;
      }

      .cls-4 {
        fill: none;
      }
    </style>
  </defs>
  <path class="cls-3" d="M11.43,18.76l42.89-3.57c-15.23,82.46-24.19,164.57,0,174.13,14.79,5.84,35.82-17.85,37.96-20.26,30.4-34.24,28.29-96.22-5.79-156.43,13.45,2.04,26.89,4.09,40.34,6.13,10.52,40.75,23.38,108.66,9.17,169.7-3.18,13.65-8.22,29.15-21.94,38.64-21.47,14.84-54.86,8.5-75.57-7.32-14.09-10.76-21.09-24.98-25.87-38.13C-9.31,121.34,3.72,51.13,11.43,18.76Z"/>
  <path class="cls-3" d="M180.96,5.99c23.05-16.58,66.22,9.18,74.55,14.3-.14,28.2.92,52.35,2.21,71.49,2.09,30.91,10.51,42.48,15.66,50.04,7.83,11.5,25.44,31.05,36.09,26.89,12.94-5.05,10.51-49.72,4-80-6.87-31.97-20.05-56.46-30.55-72.51,14.87-2.61,29.73-5.22,44.6-7.83,5.94,51.26,6.89,94.07,6.47,125.28-1,73.76-9.82,89.26-21.45,96.34-18.57,11.32-45.28.41-59.83-6.98-2.75-50.87-10.02-91.35-16.6-120-6.94-30.27-13.34-48.4-23.49-49.53-11.91-1.33-23.78,21.32-24.77,23.23-7.33,14.29-7.28,28.07-6.89,36.26,1.98,42.16,19.93,89.41,26.55,105.96h-46.98c4.55-71.52,5.79-124.69,5.96-162.89.07-17.19-.04-39.61,14.47-50.04Z"/>
  <path class="cls-3" d="M360.19,8.55c15.32.85,30.64,1.7,45.96,2.55-13.96,30.2-42,102.8-15.32,178.72,4.29,12.2,9.55,23.25,15.32,33.19h-69.45c7.83-71.49,15.66-142.98,23.49-214.47Z"/>
  <path class="cls-2" d="M415.85,19.78h40.34c-7.2,17.43-27.47,72.4-4.09,119.32,3.63,7.28,7.55,14.94,12.6,14.81,15.13-.4,25.62-70.6,32.34-134.13,14.47,2.55,28.94,5.11,43.4,7.66-3.82,13.51-9.19,39.64-2.04,70.72,6.23,27.12,22.6,60.66,31.15,58.72,6.94-1.57,11.26-27.12-.51-133.02,10.38,1.87,20.77,3.74,31.15,5.62l-9.7,187.4c-42.42,14.53-60.01,10.59-67.4,2.21-18.9-21.42,23.29-78.16-2.81-110.98-1.56-1.97-7.37-9.27-11.74-7.91-14.5,4.47,18.2,94.05-14.06,121.05-9.42,7.89-26.48,12.19-59.37,1.76-10.75-29.13-22.22-70.53-24.36-121.02-1.34-31.66,1.3-59.5,5.11-82.21Z"/>
  <g>
    <path class="cls-1" d="M682.41,45.31c1.25-.74,9.92-5.88,14.81-2.55,8.42,5.73-7.45,27.61.34,53.79,5.48,18.42,17.79,22.49,14.98,30.47-4.58,12.99-42.83,18.11-53.11,3.57-2.6-3.68-2.11-6.78,4.43-37.11,7.17-33.28,9.43-42.76,18.55-48.17ZM610.92,171.44c-2.49,18.19-3.99,49.58-3.99,49.58-.05,1.1.8,2.05,1.9,2.12l52.35,3.32c1.1.07,1.62-.69,1.16-1.69,0,0-24.89-54.39-14.66-64.56,14.4-14.31,65.42.97,68.26,28.6,1.41,13.69-23.13,36.43-23.13,36.43-.81.75-.57,1.32.53,1.28l66.22-2.65c1.1-.04,1.94-.98,1.87-2.08,0,0-2.23-34.57-4.47-53.92-6.33-54.65-29.62-144.11-29.62-144.11-.28-1.06-1.4-1.96-2.5-2l-63.41-1.92c-1.1-.03-2.37.76-2.82,1.76,0,0-39.13,87.24-47.69,149.83Z"/>
    <path class="cls-4" d="M682.41,45.31c1.25-.74,9.92-5.88,14.81-2.55,8.42,5.73-7.45,27.61.34,53.79,5.48,18.42,17.79,22.49,14.98,30.47-4.58,12.99-42.83,18.11-53.11,3.57-2.6-3.68-2.11-6.78,4.43-37.11,7.17-33.28,9.43-42.76,18.55-48.17ZM610.92,171.44c-2.49,18.19-3.99,49.58-3.99,49.58-.05,1.1.8,2.05,1.9,2.12l52.35,3.32c1.1.07,1.62-.69,1.16-1.69,0,0-24.89-54.39-14.66-64.56,14.4-14.31,65.42.97,68.26,28.6,1.41,13.69-23.13,36.43-23.13,36.43-.81.75-.57,1.32.53,1.28l66.22-2.65c1.1-.04,1.94-.98,1.87-2.08,0,0-2.23-34.57-4.47-53.92-6.33-54.65-29.62-144.11-29.62-144.11-.28-1.06-1.4-1.96-2.5-2l-63.41-1.92c-1.1-.03-2.37.76-2.82,1.76,0,0-39.13,87.24-47.69,149.83Z"/>
  </g>
  <path class="cls-2" d="M774.32,19.78h39.32c-8.83,36.7-3.87,67.11,12.26,75.57,1.17.62,6.6,3.46,12.77,2.04,16.3-3.76,26.55-34.79,25.53-77.62,10.38.85,20.77,1.7,31.15,2.55l-73.02,214.47-45.96-13.79c8.16-4.41,18.19-11.15,27.64-21.37,24.93-26.98,28.38-59.4,29.04-71.39-6.8-.45-31.57-2.91-49.7-22.81-20.22-22.2-23.97-57.08-9.02-87.66Z"/>
</svg>